<?xml version="1.0" standalone="no"?>
<!DOCTYPE svg PUBLIC "-//W3C//DTD SVG 20010904//EN"
 "http://www.w3.org/TR/2001/REC-SVG-20010904/DTD/svg10.dtd">
<svg version="1.0" xmlns="http://www.w3.org/2000/svg"
 width="1000.000000pt" height="1000.000000pt" viewBox="0 0 1000.000000 1000.000000"
 preserveAspectRatio="xMidYMid meet">
<metadata>
Created by potrace 1.11, written by Peter Selinger 2001-2013
</metadata>
<g transform="translate(0.000000,1000.000000) scale(0.100000,-0.100000)"
fill="#000000" stroke="none">
<path d="M4798 8815 c-2 -1 -52 -5 -113 -9 -149 -9 -384 -38 -495 -61 -14 -3
-52 -10 -85 -15 -209 -37 -582 -151 -835 -254 -155 -64 -400 -184 -400 -197 0
-6 -4 -8 -9 -4 -17 10 -426 -244 -416 -258 3 -4 2 -5 -1 -2 -7 4 -57 -27 -82
-52 -7 -7 -17 -13 -20 -13 -4 0 -18 -10 -32 -23 -14 -12 -46 -38 -72 -57 -27
-18 -48 -34 -48 -36 0 -1 35 13 79 32 144 63 231 65 342 9 27 -13 49 -22 49
-20 0 16 172 -153 244 -240 104 -126 139 -164 148 -159 5 3 7 1 6 -3 -7 -22
116 -119 209 -166 142 -72 267 -99 463 -101 165 -1 212 3 329 28 95 21 294 86
303 100 4 6 8 8 8 3 0 -4 17 1 38 12 96 48 323 115 462 135 19 3 53 9 75 12
56 10 416 11 502 1 319 -35 657 -152 943 -327 47 -29 91 -53 98 -53 6 0 10 -2
7 -5 -2 -2 31 -30 75 -61 111 -79 198 -152 323 -271 142 -134 234 -226 262
-265 17 -21 40 -49 52 -62 12 -13 20 -23 17 -23 -3 0 20 -34 51 -75 30 -41 55
-77 55 -80 0 -4 72 -120 87 -140 5 -5 23 -40 41 -77 19 -38 38 -68 44 -68 5 0
7 -4 4 -8 -2 -4 11 -41 30 -81 19 -40 34 -78 34 -85 0 -7 4 -16 9 -21 31 -32
127 -386 147 -540 2 -16 6 -52 10 -80 9 -74 11 -278 2 -370 -16 -174 -49 -335
-102 -495 -50 -152 -38 -152 -115 1 -62 124 -102 198 -164 307 -13 23 -27 39
-32 35 -4 -5 -5 -3 -2 3 9 16 -256 413 -302 454 -4 3 -18 21 -33 40 -15 19
-49 60 -77 90 -28 30 -50 58 -51 63 0 4 -7 7 -17 7 -9 0 -13 3 -10 6 9 9 -154
175 -165 168 -5 -3 -7 -2 -6 3 3 7 -36 45 -147 142 -16 15 -46 37 -65 51 -19
13 -42 31 -50 39 -19 19 -250 170 -315 207 -235 131 -466 223 -718 284 -218
52 -581 83 -702 61 -33 -7 -69 -12 -79 -12 -50 0 -285 -144 -278 -170 1 -6 -2
-8 -6 -5 -22 13 -164 -177 -231 -309 -80 -159 -115 -301 -114 -466 1 -151 45
-270 134 -364 64 -68 101 -87 366 -189 121 -47 236 -92 255 -100 18 -8 74 -31
123 -51 50 -20 99 -40 110 -45 11 -5 85 -37 165 -71 379 -160 633 -281 790
-376 36 -21 76 -44 90 -51 24 -11 53 -29 74 -45 52 -38 256 -164 260 -161 3 2
4 1 1 -2 -2 -4 33 -34 78 -67 108 -80 293 -265 345 -347 63 -96 85 -161 85
-250 0 -81 -21 -143 -65 -190 -13 -13 -22 -28 -21 -32 2 -5 -1 -7 -5 -5 -7 2
-51 -32 -115 -88 -7 -5 -38 -30 -69 -54 -32 -24 -58 -48 -58 -54 0 -6 -3 -8
-6 -4 -3 3 -47 -23 -97 -58 -108 -74 -243 -156 -344 -210 -40 -21 -73 -43 -73
-47 0 -5 -4 -6 -10 -3 -5 3 -20 -1 -32 -9 -13 -8 -84 -41 -158 -74 -304 -134
-611 -229 -940 -288 -19 -4 -44 -8 -55 -11 -11 -2 -38 -6 -60 -9 -22 -2 -45
-6 -52 -9 -6 -2 -38 -7 -70 -10 -32 -4 -69 -8 -83 -11 -146 -24 -621 -23 -825
2 -146 17 -228 29 -315 44 -30 6 -68 12 -85 15 -289 49 -853 227 -1066 335
-21 11 -39 17 -39 13 0 -5 -4 -3 -8 2 -4 6 -59 36 -122 68 -63 32 -146 77
-185 101 -38 24 -74 42 -79 38 -5 -3 -6 0 -2 7 4 6 0 14 -11 18 -10 4 -41 24
-70 45 -83 61 -79 52 42 -80 28 -30 58 -64 69 -76 10 -11 23 -20 28 -18 5 1 7
-1 4 -6 -7 -11 98 -115 107 -106 4 4 7 0 7 -9 0 -8 12 -25 28 -37 15 -12 47
-41 72 -64 99 -92 203 -175 213 -169 5 3 8 2 4 -3 -9 -16 406 -311 429 -304 4
1 10 -2 13 -8 17 -26 344 -195 521 -270 273 -115 644 -230 865 -267 17 -3 64
-12 105 -20 94 -18 284 -44 370 -50 36 -3 85 -7 110 -10 55 -7 547 -7 610 0
25 2 79 7 120 10 41 3 86 8 100 10 14 2 45 6 70 10 25 3 56 8 70 10 14 2 45 7
70 10 270 37 677 153 1005 287 212 88 649 322 690 371 6 7 16 13 23 15 8 1 37
20 65 41 29 21 62 43 75 50 13 7 20 17 16 24 -4 7 -4 9 1 5 13 -12 182 117
177 134 -1 5 2 7 7 4 5 -4 18 5 30 19 11 15 22 25 26 25 12 -2 104 84 99 92
-3 5 -1 7 5 6 14 -4 241 222 241 239 0 7 4 12 8 11 4 -2 24 15 43 37 18 22 44
51 56 64 12 14 20 28 17 33 -3 5 -1 7 4 6 33 -10 416 553 394 577 -4 5 -2 6 4
2 13 -8 139 242 208 415 71 177 127 353 162 508 8 36 17 74 20 85 6 27 44 242
49 280 27 213 28 705 0 866 -2 13 -13 81 -24 150 -41 252 -125 540 -233 793
-82 192 -247 504 -260 491 -2 -3 -5 1 -5 8 0 19 -72 127 -85 127 -6 0 -9 3 -5
6 12 12 -206 301 -224 297 -5 -2 -8 0 -7 5 4 12 -26 52 -39 52 -7 0 -12 4 -10
9 4 15 -224 252 -235 244 -6 -3 -8 -2 -5 3 6 11 -112 120 -125 116 -5 -1 -7 2
-4 7 3 5 -4 16 -17 24 -12 8 -31 23 -42 34 -114 108 -555 410 -579 396 -6 -3
-8 -3 -4 2 14 14 -286 171 -487 255 -55 23 -109 45 -120 50 -73 31 -340 120
-361 120 -8 0 -22 4 -32 10 -33 18 -288 77 -497 115 -58 10 -246 35 -317 41
-39 3 -81 8 -92 10 -22 5 -553 14 -558 9z"/>
<path d="M1988 6235 c-2 -2 -36 -6 -76 -9 -40 -4 -112 -18 -160 -32 -88 -25
-199 -84 -194 -104 1 -5 -2 -9 -6 -7 -17 5 -186 -154 -325 -305 -149 -163
-332 -402 -320 -421 3 -5 1 -7 -5 -4 -6 4 -20 -12 -32 -39 -21 -43 -23 -60
-24 -262 -1 -200 8 -412 18 -444 3 -7 7 -38 10 -68 21 -224 130 -636 234 -881
l19 -44 7 50 c31 227 95 406 197 556 21 31 35 60 31 64 -4 5 -2 5 4 2 12 -7
51 41 46 56 -1 4 1 6 5 5 12 -4 53 35 53 49 0 7 6 12 13 11 6 -2 11 4 9 12 -2
8 0 12 4 8 6 -7 105 67 112 85 2 4 7 7 11 7 4 0 46 23 92 50 115 69 263 121
409 145 19 3 46 7 60 10 34 6 88 13 200 25 235 26 417 194 466 430 32 153 6
352 -68 520 -11 25 -27 61 -35 80 -36 81 -142 248 -188 296 -45 47 -144 108
-192 119 -130 29 -182 37 -270 39 -56 2 -104 2 -105 1z"/>
<path d="M3260 4157 c-3 -3 -34 -7 -69 -11 -36 -3 -103 -15 -150 -27 -89 -22
-241 -85 -241 -100 0 -5 -6 -9 -13 -9 -7 0 -30 -18 -51 -39 -38 -38 -39 -41
-44 -129 -13 -235 97 -389 338 -469 61 -21 100 -26 211 -29 150 -5 244 8 369
51 119 41 288 143 274 167 -3 5 -1 7 4 6 15 -5 60 56 89 119 22 47 27 72 27
133 -2 186 -73 254 -324 311 -78 18 -407 38 -420 26z"/>
</g>
</svg>
